<svg aria-hidden="true" style="position: absolute; width: 0; height: 0; overflow: hidden;" version="1.1" xmlns="http://www.w3.org/2000/svg" xmlns:xlink="http://www.w3.org/1999/xlink">
<defs>
<symbol id="plus" width="25px" height="25px" viewBox="0 0 32 32">
<path fill="#5f5f5f" style="fill: var(--color1, #5f5f5f)" d="M23.543 21.657l-5.657-5.657 5.657-5.657-1.886-1.886-5.657 5.657-5.657-5.657-1.886 1.886 5.657 5.657-5.657 5.657 1.886 1.886 5.657-5.657 5.657 5.657 1.886-1.886z"></path>
</symbol>
<symbol id="icon-bx_bx-calendar" viewBox="0 0 32 32">
<path fill="#5f5f5f" style="fill: var(--color1, #5f5f5f)" d="M9.333 14.667h2.667v2.667h-2.667v-2.667zM9.333 20h2.667v2.667h-2.667v-2.667zM14.667 14.667h2.667v2.667h-2.667v-2.667zM14.667 20h2.667v2.667h-2.667v-2.667zM20 14.667h2.667v2.667h-2.667v-2.667zM20 20h2.667v2.667h-2.667v-2.667z"></path>
<path fill="#5f5f5f" style="fill: var(--color1, #5f5f5f)" d="M6.667 29.333h18.667c1.471 0 2.667-1.196 2.667-2.667v-18.667c0-1.471-1.196-2.667-2.667-2.667h-2.667v-2.667h-2.667v2.667h-8v-2.667h-2.667v2.667h-2.667c-1.471 0-2.667 1.196-2.667 2.667v18.667c0 1.471 1.196 2.667 2.667 2.667zM25.333 10.667l0.001 16h-18.668v-16h18.667z"></path>
</symbol>
 <symbol id="icon-grid" viewBox="0 0 32 32">
    <path d="M7 12h-6c-0.553 0-1 0.447-1 1v6c0 0.553 0.447 1 1 1h6c0.553 0 1-0.447 1-1v-6c0-0.553-0.447-1-1-1zM6 17c0 0.553-0.447 1-1 1h-2c-0.553 0-1-0.447-1-1v-2c0-0.553 0.447-1 1-1h2c0.553 0 1 0.447 1 1v2zM7 0h-6c-0.553 0-1 0.447-1 1v6c0 0.553 0.447 1 1 1h6c0.553 0 1-1.447 1-2v-5c0-0.553-0.447-1-1-1zM6 5c0 0.553-0.447 1-1 1h-2c-0.553 0-1-0.447-1-1v-2c0-0.553 0.447-1 1-1h2c0.553 0 1 0.447 1 1v2zM7 24h-6c-0.553 0-1 0.447-1 1v6c0 0.553 0.447 1 1 1h6c0.553 0 1-0.447 1-1v-6c0-0.553-0.447-1-1-1zM6 29c0 0.553-0.447 1-1 1h-2c-0.553 0-1-0.447-1-1v-2c0-0.553 0.447-1 1-1h2c0.553 0 1 0.447 1 1v2zM19 12h-6c-0.553 0-1 0.447-1 1v6c0 0.553 0.447 1 1 1h6c0.553 0 1-0.447 1-1v-6c0-0.553-0.447-1-1-1zM18 17c0 0.553-0.447 1-1 1h-2c-0.553 0-1-0.447-1-1v-2c0-0.553 0.447-1 1-1h2c0.553 0 1 0.447 1 1v2zM19 24h-6c-0.553 0-1 0.447-1 1v6c0 0.553 0.447 1 1 1h6c0.553 0 1-0.447 1-1v-6c0-0.553-0.447-1-1-1zM18 29c0 0.553-0.447 1-1 1h-2c-0.553 0-1-0.447-1-1v-2c0-0.553 0.447-1 1-1h2c0.553 0 1 0.447 1 1v2zM31 12h-6c-0.553 0-1 0.447-1 1v6c0 0.553 0.447 1 1 1h6c0.553 0 1-0.447 1-1v-6c0-0.553-0.447-1-1-1zM30 17c0 0.553-0.447 1-1 1h-2c-0.553 0-1-0.447-1-1v-2-2c0-0.553 0.447-1 1-1h2c0.553 0 1 0.447 1 1v2zM31 0h-6c-0.553 0-1 0.447-1 1v6c0 0.553 0.447 1 1 1h6c0.553 0 1-1.447 1-2v-5c0-0.553-0.447-1-1-1zM30 5c0 0.553-0.447 1-1 1h-2c-0.553 0-1-0.447-1-1v-2c0-0.553 0.447-1 1-1h2c0.553 0 1 0.447 1 1v2zM19 0h-6c-0.553 0-1 0.447-1 1v6c0 0.553 0.447 1 1 1h6c0.553 0 1-1.447 1-2v-5c0-0.553-0.447-1-1-1zM18 5c0 0.553-0.447 1-1 1h-2c-0.553 0-1-0.447-1-1v-2c0-0.553 0.447-1 1-1h2c0.553 0 1 0.447 1 1v2zM31 24h-6c-0.553 0-1 0.447-1 1v6c0 0.553 0.447 1 1 1h6c0.553 0 1-0.447 1-1v-6c0-0.553-0.447-1-1-1zM30 29c0 0.553-0.447 1-1 1h-2c-0.553 0-1-0.447-1-1v-2c0-0.553 0.447-1 1-1h2c0.553 0 1 0.447 1 1v2z"></path>
  </symbol>
<symbol id="icon-group13" viewBox="0 0 24 22">
    <rect width="6" height="6" fill="#C8C7C7"/>
    <rect y="8" width="6" height="6" fill="#C8C7C7"/>
    <rect y="16" width="6" height="6" fill="#C8C7C7"/>
    <rect x="9" y="10" width="15" height="2" fill="#C8C7C7"/>
    <rect x="9" y="18" width="15" height="2" fill="#C8C7C7"/>
    <rect x="9" y="2" width="15" height="2" fill="#C8C7C7"/>
  </symbol>
   <symbol id="icon-chat-bubble-dots" viewBox="0 0 20 20">
      <path fill="#5f5f5f" style="fill: var(--color1, #5f5f5f)" d="M10 15l-4 4v-4h-4c-1.105 0-2-0.895-2-2v0-10c0-1.1 0.9-2 2-2h16c1.105 0 2 0.895 2 2v0 10c0 1.105-0.895 2-2 2v0h-8zM5 7v2h2v-2h-2zM9 7v2h2v-2h-2zM13 7v2h2v-2h-2z"></path>
    </symbol>
    <symbol id="icon-heart" viewBox="0 0 32 32">
      <path d="M23.6 2c-3.363 0-6.258 2.736-7.599 5.594-1.342-2.858-4.237-5.594-7.601-5.594-4.637 0-8.4 3.764-8.4 8.401 0 9.433 9.516 11.906 16.001 21.232 6.13-9.268 15.999-12.1 15.999-21.232 0-4.637-3.763-8.401-8.4-8.401z"></path>
    </symbol>
</defs>
</svg>
